<svg xmlns="http://www.w3.org/2000/svg" width="48" height="48" viewBox="0 0 12.7 12.7" id="box"><g color="#000" font-family="sans-serif" font-weight="400"><path fill="#e7a22a" style="line-height:normal;font-variant-ligatures:normal;font-variant-position:normal;font-variant-caps:normal;font-variant-numeric:normal;font-variant-alternates:normal;font-feature-settings:normal;text-indent:0;text-align:start;text-decoration-line:none;text-decoration-style:solid;text-decoration-color:#000;text-transform:none;text-orientation:mixed;shape-padding:0;isolation:auto;mix-blend-mode:normal" d="M10.047 3.176a.265.265 0 0 0-.095.02L4.925 5.311a.265.265 0 0 0-.163.244v5.82a.265.265 0 0 0 .367.245l5.028-2.117a.265.265 0 0 0 .162-.245V3.44a.265.265 0 0 0-.272-.263Z" overflow="visible" transform="matrix(.99978 0 0 1 1.324 0)"></path><path fill="#f7b137" style="line-height:normal;font-variant-ligatures:normal;font-variant-position:normal;font-variant-caps:normal;font-variant-numeric:normal;font-variant-alternates:normal;font-feature-settings:normal;text-indent:0;text-align:start;text-decoration-line:none;text-decoration-style:solid;text-decoration-color:#000;text-transform:none;text-orientation:mixed;shape-padding:0;isolation:auto;mix-blend-mode:normal" d="M.001 3.174a.265.265 0 0 0-.028.002.265.265 0 0 0-.236.263v5.82a.265.265 0 0 0 .16.245l5.028 2.117a.265.265 0 0 0 .367-.244v-5.82a.265.265 0 0 0-.163-.245L.104 3.195a.265.265 0 0 0-.103-.021Z" overflow="visible" transform="matrix(.99978 0 0 1 1.324 0)"></path><path fill="#f9bd55" style="line-height:normal;font-variant-ligatures:normal;font-variant-position:normal;font-variant-caps:normal;font-variant-numeric:normal;font-variant-alternates:normal;font-feature-settings:normal;text-indent:0;text-align:start;text-decoration-line:none;text-decoration-style:solid;text-decoration-color:#000;text-transform:none;text-orientation:mixed;shape-padding:0;isolation:auto;mix-blend-mode:normal" d="M5.028 1.058a.265.265 0 0 0-.103.02L-.103 3.195a.265.265 0 0 0 0 .489L4.925 5.8a.265.265 0 0 0 .204 0l5.028-2.117a.265.265 0 0 0 0-.489L5.129 1.078a.265.265 0 0 0-.1-.02z" overflow="visible" transform="matrix(.99978 0 0 1 1.324 0)"></path><path style="line-height:normal;font-variant-ligatures:normal;font-variant-position:normal;font-variant-caps:normal;font-variant-numeric:normal;font-variant-alternates:normal;font-feature-settings:normal;text-indent:0;text-align:start;text-decoration-line:none;text-decoration-style:solid;text-decoration-color:#000;text-transform:none;text-orientation:mixed;shape-padding:0;isolation:auto;mix-blend-mode:normal" d="M24.002 4.002a1 1 0 0 0-.393.072l-19 8.002a1 1 0 0 0-.002.002 1 1 0 0 0-.603 1.059v21.861a1 1 0 0 0 .605.922l19 8.002a1 1 0 0 0 .022.008 1 1 0 0 0 .01.004 1 1 0 0 0 .088.029 1 1 0 0 0 .072.018 1 1 0 0 0 .002 0 1 1 0 0 0 .072.011 1 1 0 0 0 .025.004 1 1 0 0 0 .014 0 1 1 0 0 0 .06.002 1 1 0 0 0 .051.002 1 1 0 0 0 .026-.002 1 1 0 0 0 .072-.006 1 1 0 0 0 .01-.002 1 1 0 0 0 .08-.013 1 1 0 0 0 .01-.002 1 1 0 0 0 .072-.02 1 1 0 0 0 .008-.002 1 1 0 0 0 .082-.031l.004-.002 18.998-8a1 1 0 0 0 .611-.922V13.074a1 1 0 0 0-.611-.998l-9.145-3.851a1 1 0 0 0-.195-.082l-9.662-4.069a1 1 0 0 0-.383-.072zm0 2.08 7.172 3.023-16.422 6.915L7.584 13Zm9.75 4.11L40.418 13l-16.42 6.914-6.67-2.809ZM5.996 14.505l17 7.16v19.828l-17-7.16Zm36.002 0v19.828l-17 7.16V21.666l6.09-2.564zM9.115 27.199a1 1 0 0 0-.107.004 1 1 0 0 0-.28 1.926l3.772 1.588a1.001 1.001 0 1 0 .775-1.846l-3.771-1.588a1 1 0 0 0-.389-.084zm0 4a1 1 0 0 0-.107.004 1 1 0 0 0-.28 1.928l3.772 1.586a1.001 1.001 0 1 0 .775-1.846l-3.771-1.586a1 1 0 0 0-.389-.086z" overflow="visible" transform="matrix(.26452 0 0 .26458 .001 0)"></path></g></svg>