<svg xmlns="http://www.w3.org/2000/svg" viewBox="0 0 64 64" id="bus"><rect width="60" height="2" x="2" y="47" fill="#333"></rect><path fill="#f7e646" d="M57,43h2a2,2,0,0,0,2-2V32L56.6,21l-1.1-2.743A2,2,0,0,0,53.646,17H5a2,2,0,0,0-2,2V41a2,2,0,0,0,2,2H57Z"></path><path fill="#f7931e" d="M56.6,21H3V19a2,2,0,0,1,2-2H53.646A2,2,0,0,1,55.5,18.257Z"></path><path fill="#75d7f9" d="M60.852 32H49a1 1 0 0 1-1-1V21h8.6l4.345 10.863A.1.1 0 0 1 60.852 32zM7.5 25H13a0 0 0 0 1 0 0v8a0 0 0 0 1 0 0H7.5a.5.5 0 0 1-.5-.5v-7A.5.5 0 0 1 7.5 25z"></path><path fill="#f7e646" d="M14,34H7.5A1.5,1.5,0,0,1,6,32.5v-7A1.5,1.5,0,0,1,7.5,24H14ZM8,32h4V26H8Z"></path><rect width="6" height="8" x="13" y="25" fill="#75d7f9"></rect><path fill="#f7e646" d="M20,34H12V24h8Zm-6-2h4V26H14Z"></path><rect width="6" height="8" x="19" y="25" fill="#75d7f9"></rect><path fill="#f7e646" d="M26,34H18V24h8Zm-6-2h4V26H20Z"></path><rect width="6" height="8" x="32" y="25" fill="#75d7f9"></rect><path fill="#f7e646" d="M39,34H31V24h8Zm-6-2h4V26H33Z"></path><path fill="#75d7f9" d="M38,25h5.5a.5.5,0,0,1,.5.5v7a.5.5,0,0,1-.5.5H38a0,0,0,0,1,0,0V25A0,0,0,0,1,38,25Z"></path><path fill="#f7e646" d="M43.5,34H37V24h6.5A1.5,1.5,0,0,1,45,25.5v7A1.5,1.5,0,0,1,43.5,34ZM39,32h4V26H39Z"></path><circle cx="12" cy="43" r="5" fill="#545656"></circle><circle cx="12" cy="43" r="1" fill="#f2f2f2"></circle><path fill="#f2f2f2" d="M12,45a2,2,0,1,1,2-2A2,2,0,0,1,12,45Zm0-2h0v0Z"></path><circle cx="52" cy="43" r="5" fill="#545656"></circle><circle cx="52" cy="43" r="1" fill="#f2f2f2"></circle><path fill="#f2f2f2" d="M52,45a2,2,0,1,1,2-2A2,2,0,0,1,52,45Zm0-2h0v0Z"></path><rect width="4" height="2" x="57" y="35" fill="#f2f2f2"></rect><rect width="7" height="18" x="25" y="25" fill="#efd30a"></rect><rect width="3" height="2" x="27" y="33" fill="#ccc"></rect><g><path d="M57.277,20h0l-.845-2.114A2.987,2.987,0,0,0,53.646,16H5a3,3,0,0,0-3,3V41a3,3,0,0,0,3,3H6.09a5.979,5.979,0,0,0,1.45,3H2v2H62V47H56.46a5.979,5.979,0,0,0,1.45-3H59a3,3,0,0,0,3-3V32.109l.072-.123Zm2.246,11H49V22h6.923l2.189,5.472ZM4,19a1,1,0,0,1,1-1H53.646a1.007,1.007,0,0,1,.3.044,1,1,0,0,1,.631.585L55.123,20H4ZM8,43a4,4,0,1,1,4,4A4,4,0,0,1,8,43Zm9.91,1H46.09a5.979,5.979,0,0,0,1.45,3H16.46A5.979,5.979,0,0,0,17.91,44ZM24,32H20V26h4Zm2,2V26h5V42H26Zm7-8h4v6H33ZM48,43a4,4,0,1,1,4,4A4,4,0,0,1,48,43Zm11-1H57.91a5.993,5.993,0,0,0-11.82,0H33V34H43.5A1.5,1.5,0,0,0,45,32.5v-7A1.5,1.5,0,0,0,43.5,24H7.5A1.5,1.5,0,0,0,6,25.5v7A1.5,1.5,0,0,0,7.5,34H24v8H17.91A5.993,5.993,0,0,0,6.09,42H5a1,1,0,0,1-1-1V22H47v9a2,2,0,0,0,2,2H60v2H57v2h3v4A1,1,0,0,1,59,42ZM39,32V26h4v6ZM18,26v6H14V26Zm-6,0v6H8V26Z"></path><path d="M12 41a2 2 0 1 0 2 2A2 2 0 0 0 12 41zm0 3V43h0zM52 41a2 2 0 1 0 2 2A2 2 0 0 0 52 41zm0 3V43h0z"></path><rect width="3" height="2" x="27" y="33"></rect></g></svg>