<svg width="32" height="32" viewBox="0 0 32 32" fill="none" xmlns="http://www.w3.org/2000/svg">
<path d="M19.9444 24.1684H25.2001L21.8879 30.4207H16.03C13.4569 30.4207 12.3483 29.8306 12.3209 28.0884C10.788 29.9149 8.8445 30.8 6.46302 30.8C4.25947 30.8 2.54864 29.8727 1.30315 28.0181C0.0987233 26.1354 -0.270816 23.761 0.19453 20.9088C1.33052 14.1367 5.58708 10.7787 12.9779 10.7787H13.279L12.0472 16.8202H11.6776C9.6657 16.8202 8.29704 18.3657 7.90012 21.1196C7.59902 23.0725 8.40653 24.3511 9.9805 24.3511C11.5818 24.3511 12.4578 23.1427 13.0874 20.0939L16.3037 4.40002H24.0367L19.9444 24.1684Z" fill="black"></path>
</svg>