<?xml version="1.0" encoding="utf-8"?>
<!-- Generator: Adobe Illustrator 24.3.0, SVG Export Plug-In . SVG Version: 6.00 Build 0)  -->
<svg version="1.1" id="Layer_1" xmlns="http://www.w3.org/2000/svg" xmlns:xlink="http://www.w3.org/1999/xlink" x="0px" y="0px"
	 viewBox="0 0 512 512" style="enable-background:new 0 0 512 512;" xml:space="preserve">
<style type="text/css">
	.st0{fill:#00597D;}
	.st1{fill:#BCD848;}
</style>
<g id="XMLID_1_">
	<path id="XMLID_2_" class="st0" d="M307.03,143.96c23-7.15,47.12-12.34,71.24-13.88c18.93-0.98,37.86-0.56,55.81,5.61
		c11.78,4.07,22.58,10.8,28.75,21.46c6.17,10.24,6.17,22.58,4.07,34.36c-3.09,18.51-6.59,37.44-9.68,55.81
		c12.76-13.88,26.08-27.63,38.99-41.51c5.19,0,10.8,0,15.85,0c-13.88,13.88-27.63,27.63-41.51,42.07
		c9.68,15.85,19.49,31.83,29.17,47.68c-5.61,0-11.22,0-16.97,0c-8.69-15.43-17.39-30.71-26.08-46.14
		c-2.52,15.43-5.61,30.71-8.13,46.14c-4.63,0-9.68,0-14.3,0c6.17-34.36,12.34-68.72,17.95-102.93c2.1-11.78,1.54-24.12-5.19-34.36
		c-5.61-9.26-15.43-14.86-25.66-17.95c-14.86-4.07-30.29-4.63-45.58-4.07c-35.34,0.98-69.7,9.68-103.49,20.47
		C283.89,151.67,295.11,147.6,307.03,143.96z"/>
	<path id="XMLID_3_" class="st0" d="M27.26,190.65c0.56-5.19,5.19-9.68,10.24-9.26c14.86,0,29.73,0,44.59,0
		c-0.56,3.65-0.98,7.15-2.1,10.24c-12.34,0-25.1,0-37.44,0c-2.1,13.32-4.63,26.64-7.15,39.41c11.22,0,22.58,0,33.8,0
		c-0.56,3.65-0.98,7.15-1.54,10.24c-11.22,0-22.58,0-33.8,0c-2.52,14.3-5.19,28.75-7.71,43.61c13.88,0,27.63,0,41.51,0
		c-0.56,3.65-0.98,7.15-2.1,10.8c-15.85,0-31.83,0-47.68,0c-3.65,0.56-7.15-1.54-8.13-5.19c-0.56-3.09,0.56-6.17,0.98-9.26
		C16.46,251.1,21.51,220.8,27.26,190.65z"/>
	<path id="XMLID_4_" class="st0" d="M110.28,205.52c9.26-2.1,19.49-0.98,27.21,5.19c-1.54,3.09-3.65,6.17-5.19,8.69
		c-7.15-6.17-18.51-5.61-26.08,0c-8.13,6.17-11.78,15.85-14.3,25.1c-2.1,9.68-3.65,19.91-0.98,30.29
		c1.54,5.61,5.61,10.24,11.22,11.78c6.73,1.54,12.76-0.56,18.51-4.07c0.56,3.09,1.54,6.59,2.1,9.68
		c-8.69,5.61-19.91,7.15-30.29,4.63c-10.24-3.09-15.85-12.76-17.39-23c-2.1-13.32,0.56-27.63,5.61-39.97
		C86.15,220.38,96.39,208.6,110.28,205.52z"/>
	<path id="XMLID_5_" class="st0" d="M373.64,210.57c12.34-5.19,25.66-6.59,38.99-6.17c6.59,0.56,14.3,2.52,18.51,7.71
		c4.07,5.19,5.19,12.34,4.07,18.51c-3.65,21.46-7.71,43.05-11.22,65.07c-5.19,0-9.68,0-14.86,0c3.65-21.46,7.71-43.05,11.22-64.51
		c0.56-4.07,0.56-8.69-2.1-12.34c-2.52-3.09-6.17-4.07-10.24-4.63c-7.15-0.56-14.3,0.56-20.47,3.09
		c-4.63,26.08-9.26,52.31-13.88,78.95c-5.19,0-9.68,0-14.86,0C363.26,267.5,368.45,239.32,373.64,210.57z"/>
	<path id="XMLID_6_" class="st0" d="M199.32,211.13c-7.15-7.15-17.95-7.71-27.21-6.17c-6.73,1.54-13.32,4.63-18.51,9.68
		c-9.68,9.68-14.86,23-17.39,36.88c-1.54,10.8-2.52,22.02,2.1,32.25c2.52,6.17,8.13,11.22,14.86,12.76
		c12.76,3.65,27.63,0,36.88-9.68c11.78-12.34,15.85-29.73,17.39-46.14C208.02,230.06,207.04,218.84,199.32,211.13z M193.15,236.79
		c-0.56,10.24-2.52,20.47-5.61,29.73c-2.52,7.15-6.73,14.86-13.88,18.51c-6.17,3.09-14.86,2.52-19.49-3.09
		c-3.65-5.19-4.07-11.22-4.07-17.39c0.56-11.22,2.52-22.58,6.73-32.82c3.09-7.15,7.71-14.3,15.43-17.39
		c5.61-1.54,12.76-1.54,16.97,3.65C193.15,223.47,193.15,230.62,193.15,236.79z"/>
	<path id="XMLID_9_" class="st0" d="M272.11,208.04c-10.24-5.19-22.58-3.65-32.82,0.56c2.52-14.3,5.19-29.17,7.71-43.61
		c-5.61,3.09-10.8,6.17-16.41,9.26c-6.59,38.99-13.88,77.83-20.47,116.82c9.68,5.61,21.46,6.59,32.25,5.61
		c13.32-1.54,25.66-9.68,32.82-21.04c7.71-11.78,11.22-25.66,11.22-39.41C285.99,225.99,282.34,213.65,272.11,208.04z M268.6,256.7
		c-2.52,9.68-6.73,20.05-14.86,26.08c-7.71,5.61-18.51,6.17-27.63,3.09c3.65-20.47,7.15-40.95,10.8-61.42
		c0.56-2.52,0.56-5.19,1.54-7.71c6.59-3.09,14.86-4.63,21.46-2.1c5.19,1.54,8.13,6.73,9.68,11.22
		C272.67,236.23,270.56,247.03,268.6,256.7z"/>
	<path id="XMLID_12_" class="st0" d="M355.13,214.21c-3.65-5.19-9.26-8.13-15.43-9.26c-12.76-2.1-25.66,0.56-36.88,6.17
		c0.56,3.09,1.54,6.17,2.1,9.26c9.26-4.07,18.93-7.15,28.75-5.19c4.07,0.56,8.13,2.52,9.68,6.59c2.1,5.19,0.56,10.8-0.56,15.85
		c-11.78,0.98-23.56,3.09-34.36,7.71c-8.69,3.65-16.41,10.24-20.05,19.49c-2.52,7.15-3.65,16.41,0.56,23
		c4.07,6.17,11.78,8.69,18.93,9.68c13.32,1.54,26.64,0,38.99-5.61c3.65-19.49,6.59-38.42,10.24-57.92
		C358.77,226.97,358.77,219.82,355.13,214.21z M334.09,285.87c-7.15,3.09-15.43,3.65-22.58,2.1c-5.19-0.98-9.68-5.19-10.24-10.24
		c-0.56-9.26,3.09-19.49,11.22-24.54c8.69-5.19,18.93-6.59,29.17-8.13C338.72,258.81,337.18,272.55,334.09,285.87z"/>
	<path id="XMLID_15_" class="st1" d="M4.68,316.73c0-0.98,0.56-2.52,0.56-3.65c22.02,0,43.61,0,65.63,0
		c10.24,0.56,20.47,0.56,30.29,0.56c132.24,0,264.9,0,397.15,0c0,0.98-0.56,2.52-0.56,3.65C333.67,316.73,169.17,316.73,4.68,316.73
		z"/>
	<path id="XMLID_16_" class="st0" d="M19.96,381.23c2.52-14.86,5.19-29.73,7.71-44.59c1.54,0,3.65,0,5.19,0
		c-0.98,5.19-1.54,10.24-2.52,15.43c4.07-1.54,9.26-2.52,13.32,0c2.52,1.54,2.52,5.19,2.1,7.71c-0.98,7.15-2.52,14.3-3.65,21.46
		c-1.54,0-3.65,0-5.19,0c0.98-7.71,3.09-15.43,4.07-22.58c0.56-2.52-1.54-5.19-4.07-4.63c-2.52-0.56-5.19,0.56-7.15,1.54
		c-1.54,8.69-3.09,17.39-4.63,26.08C23.61,381.23,22.07,381.23,19.96,381.23z"/>
	<path id="XMLID_17_" class="st0" d="M241.4,339.72c2.52-2.52,6.17-3.09,9.26-3.09c0,3.09-2.52,4.07-5.19,5.19
		c-2.52,2.1-2.1,5.61-3.09,8.69c1.54,0,3.65,0,5.19,0c0,0.98-0.56,2.52-0.56,3.65c-1.54,0-3.65,0-5.19,0
		c-1.54,9.26-3.09,18.51-4.63,27.63c-1.54,0-3.65,0-5.19,0c1.54-9.26,3.09-18.51,4.63-27.63c-0.98,0-2.52,0-3.65,0
		c0-0.98,0.56-2.1,0.56-3.65c0.98,0,2.52,0,3.65,0C237.75,346.46,238.31,342.25,241.4,339.72z"/>
	<path id="XMLID_18_" class="st0" d="M463.81,381.23c2.52-14.86,5.19-29.73,7.71-44.59c1.54,0,3.65,0,5.19,0
		c-1.54,9.26-3.09,18.51-5.19,27.63c4.63-4.63,8.69-9.26,13.32-13.88c2.1,0,3.65,0,5.61,0c-4.63,5.19-9.26,9.68-14.3,14.3
		c3.65,5.61,6.59,10.8,10.24,16.41c-2.1,0-4.07,0-6.17,0c-3.09-5.19-6.17-10.24-8.69-15.43c-0.98,5.19-2.1,10.24-2.52,15.43
		C467.31,381.23,465.21,381.23,463.81,381.23z"/>
	<path id="XMLID_19_" class="st0" d="M274.21,339.72c2.1-1.54,5.61,0,4.63,2.52c-0.56,2.52-3.65,2.52-5.61,2.1
		C273.09,342.81,272.67,340.71,274.21,339.72z"/>
	<path id="XMLID_20_" class="st0" d="M0.61,341.83c7.15,0,13.88,0,21.04,0c0,1.54-0.56,2.52-0.56,4.07c-2.52,0-5.19,0-7.71,0
		c-2.1,11.78-4.07,23.56-6.17,35.34c-2.1,0-3.65,0-5.61,0c2.1-11.78,4.07-23.56,6.17-35.34c-2.52,0-5.19,0-7.71,0
		C0.05,344.35,0.61,343.37,0.61,341.83z"/>
	<path id="XMLID_21_" class="st0" d="M123.04,345.89c-3.65-5.19-10.8-4.63-15.85-3.65c-1.54,0.56-4.63,0.56-4.63,3.09
		c-2.1,12.34-4.07,24.12-6.59,36.32c2.1,0,3.65,0,5.61,0c0.98-5.19,2.1-10.8,2.52-15.85c4.63,0,9.26,0.56,13.32-2.1
		C123.6,360.2,126.12,351.5,123.04,345.89z M113.78,360.76c-2.52,1.54-6.17,0.98-9.26,0.98c0.56-5.61,2.1-11.22,2.52-16.41
		c3.65-0.56,9.26-1.54,10.8,2.52C119.95,352.49,118.41,358.24,113.78,360.76z"/>
	<path id="XMLID_24_" class="st0" d="M219.8,341.83c-1.54,0-3.09,0-5.19,0c-6.59,13.32-13.32,26.08-19.91,39.41
		c0.98,0,3.65,0,5.19,0c2.1-4.07,4.07-7.71,5.61-11.78c4.63,0,8.69,0,13.32,0c0.56,3.65,0.98,7.71,1.54,11.22c2.1,0,3.65,0,5.61,0
		C224.01,367.91,221.9,355.15,219.8,341.83z M207.6,365.81c2.52-6.17,6.17-12.34,8.69-18.51c0.56,6.17,1.54,12.34,2.1,18.51
		C214.75,365.81,211.1,365.81,207.6,365.81z"/>
	<path id="XMLID_27_" class="st0" d="M155.85,352.07c5.61-2.1,11.78-3.09,17.39-0.98c3.09,0.98,4.63,4.63,3.65,7.71
		c-0.98,7.71-2.52,15.43-4.07,23c-1.54,0-3.65,0-5.19,0c0.98-8.13,3.09-15.85,4.07-24.12c-0.56-5.19-7.71-4.07-11.22-3.09
		c-1.54,9.26-3.09,17.95-4.63,27.21c-1.54,0-3.65,0-5.19,0C152.21,371.56,154.31,361.74,155.85,352.07z"/>
	<path id="XMLID_28_" class="st0" d="M287.95,352.49c4.07-3.09,9.68-3.09,13.88-0.56c-0.56,0.98-0.98,2.52-1.54,3.09
		c-2.52-0.98-5.61-2.1-8.13-0.56c-4.63,2.52-6.17,8.13-6.59,12.76c-0.56,3.65-0.56,7.71,3.09,9.68c2.52,1.54,5.19,0,7.71-0.98
		c0,0.98,0.56,2.52,0.56,3.65c-3.65,1.54-7.71,2.52-11.22,0.98c-3.65-1.54-5.61-5.61-5.61-9.26
		C279.82,364.83,281.92,356.69,287.95,352.49z"/>
	<path id="XMLID_29_" class="st0" d="M333.67,352.07c5.19-1.54,10.8-2.52,15.85-1.54c3.09,0.56,5.61,3.65,5.61,7.15
		c-0.98,8.13-2.52,15.85-4.07,24.12c-1.54,0-3.65,0-5.19,0c0.98-7.71,3.09-15.85,4.07-23.56c0-5.61-7.15-4.63-11.22-3.65
		c-1.54,9.26-3.09,17.95-4.63,27.21c-1.54,0-3.65,0-5.19,0C330.59,371.56,332.13,361.74,333.67,352.07z"/>
	<path id="XMLID_30_" class="st0" d="M439.69,352.07c5.61-1.54,11.78-3.09,17.39-0.98c3.09,0.98,4.63,4.63,4.07,7.71
		c-0.98,7.71-2.52,15.43-4.07,23c-1.54,0-3.65,0-5.19,0c0.98-8.13,3.09-15.85,4.07-24.12c-0.56-5.61-7.15-4.07-11.22-3.09
		c-1.54,9.26-3.09,17.95-4.63,27.21c-1.54,0-3.65,0-5.19,0C436.04,371.56,438.15,361.74,439.69,352.07z"/>
	<path id="XMLID_31_" class="st0" d="M252.61,352.07c4.63-2.1,9.26-2.1,13.88-2.1c-0.56,0.98-0.98,2.52-1.54,3.65
		c-2.52,0-4.63,0-7.15,0.56c-1.54,9.26-3.09,17.95-4.63,27.21c-1.54,0-3.65,0-5.19,0C249.53,371.56,251.07,361.74,252.61,352.07z"/>
	<path id="XMLID_32_" class="st0" d="M271.55,350.52c1.54,0,3.65,0,5.19,0c-2.1,10.24-3.65,20.47-5.61,30.71c-1.54,0-3.65,0-5.19,0
		C268.04,371,270,360.76,271.55,350.52z"/>
	<path id="XMLID_33_" class="st0" d="M71.29,351.5c-5.61-3.09-13.32-1.54-16.97,3.65c-3.65,5.19-5.19,11.78-4.63,17.95
		c0.56,3.65,3.09,7.15,7.15,8.13c4.63,0.98,9.68,0.56,13.88-1.54c0-0.98-0.56-2.52-0.56-3.65c-4.07,1.54-8.69,3.09-12.76,0.56
		c-2.52-2.1-2.52-5.61-3.09-8.69c6.59-0.98,13.32-2.1,19.91-3.09C74.8,360.2,75.92,354.59,71.29,351.5z M69.75,362.86
		c-5.19,0.98-10.24,1.54-14.86,2.1c0.98-3.65,2.1-8.13,5.61-10.24c2.52-1.54,6.17-2.1,8.13,0.56
		C70.73,357.11,69.75,360.2,69.75,362.86z"/>
	<path id="XMLID_36_" class="st0" d="M404.77,352.49c0.98-3.65,0-8.13-4.07-9.68c-5.61-2.52-12.34-1.54-17.95,0.56
		c-2.1,12.34-4.07,24.54-6.59,36.32c6.17,2.52,12.76,2.52,18.93,0.56c5.19-2.1,8.69-8.13,7.15-13.88c-0.56-3.09-3.65-4.63-6.17-6.17
		C400.14,359.22,403.79,356.13,404.77,352.49z M397.2,365.39c1.54,4.07,0,9.68-4.63,11.22c-3.09,1.54-7.15,0.98-10.8,0.56
		c0.98-5.19,2.1-10.24,2.52-15.43C388.92,362.3,394.53,361.32,397.2,365.39z M397.62,356.13c-3.09,3.65-8.13,3.09-12.34,3.09
		c0.98-4.63,1.54-9.26,2.52-13.88c3.65-0.56,7.71-1.54,10.8,0.98C400.7,348.98,399.72,353.61,397.62,356.13z"/>
	<path id="XMLID_40_" class="st0" d="M144.07,350.52c-4.63-2.1-10.24-0.98-14.86,1.54c0,0.98,0.56,2.52,0.56,3.09
		c4.07-0.98,8.13-3.09,12.34-0.98c2.52,1.54,1.54,4.63,0.98,6.59c-6.17,0.56-12.76,1.54-16.97,6.17c-3.09,3.65-4.07,10.8,0.56,13.32
		c5.61,2.52,12.34,1.54,17.95-0.56c0.98-7.15,2.52-14.3,3.65-21.46C148.7,355.57,147.16,352.07,144.07,350.52z M139.86,377.59
		c-3.65,0.98-7.71,1.54-10.24-0.98c-2.1-2.52-0.56-6.17,0.98-8.69c3.09-3.09,7.71-3.65,11.78-4.63
		C141.41,368.47,140.43,373.1,139.86,377.59z"/>
	<path id="XMLID_43_" class="st0" d="M322.87,350.94c-5.19-2.52-10.8-0.98-15.85,0.98c0,0.98,0.56,2.52,0.56,3.65
		c3.65-0.98,8.13-3.09,11.78-0.98c2.52,1.54,1.54,4.63,1.54,6.73c-6.17,0.98-13.32,1.54-17.39,7.15c-2.52,3.65-3.09,9.68,0.98,12.34
		c5.61,2.52,12.34,1.54,17.95-0.56c0.98-6.59,2.52-13.88,3.65-20.47C326.38,356.13,325.96,352.49,322.87,350.94z M317.68,378.15
		c-3.09,0.56-6.59,1.54-9.26,0c-2.52-2.1-2.1-6.17-0.56-8.69c2.52-4.07,7.71-4.63,12.34-5.19
		C319.23,368.47,318.81,373.1,317.68,378.15z"/>
	<path id="XMLID_46_" class="st0" d="M427.91,350.94c-5.19-2.1-10.8-0.56-15.43,0.98c0,0.98,0.56,2.1,0.56,3.09
		c4.07-0.98,8.13-3.09,12.34-0.56c2.1,1.54,0.98,4.07,0.98,6.73c-6.17,0.98-13.88,1.54-17.39,7.15c-2.52,3.65-3.09,10.24,2.1,12.34
		c5.61,2.1,11.78,0.98,17.39-0.56c0.98-7.15,2.52-14.3,3.65-21.46C431.98,355.57,430.43,352.07,427.91,350.94z M423.28,377.59
		c-3.09,0.56-6.59,1.54-9.68-0.56c-2.52-2.1-1.54-6.17,0-8.69c2.52-3.65,7.71-4.07,11.78-5.19
		C424.82,368.47,423.84,373.1,423.28,377.59z"/>
</g>
</svg>
