<svg xmlns="http://www.w3.org/2000/svg" enable-background="new 0 0 48 48" viewBox="0 0 48 48" id="family"><path fill="#795548" d="M27.679 24H36.5V6c0 0-9.5 2.769-9.5 14.538C27 22.615 27.679 24 27.679 24zM45.321 24H36.5V6c0 0 9.5 2.769 9.5 14.538C46 22.615 45.321 24 45.321 24z"></path><path fill="#fb8c00" d="M18.905 17.493C18.639 18.664 18.4 19 17.643 19c-.994 0-1.727-.69-1.727-1.512S16.721 16 17.715 16C18.891 16 19.177 16.298 18.905 17.493zM4.095 17.493C4.361 18.664 4.6 19 5.357 19c.994 0 1.727-.69 1.727-1.512S6.279 16 5.285 16C4.109 16 3.823 16.298 4.095 17.493z"></path><path fill="#00bcd4" d="M19.744,28.259C18.856,27.042,14.033,25,14.033,25H11.5H8.967c0,0-4.823,2.042-5.711,3.259
	C2.183,29.73,2,32,2,32h19C21,32,20.817,29.73,19.744,28.259z"></path><path fill="#ff5722" d="M44.744,28.259C43.856,27.042,39.033,25,39.033,25H36.5h-2.533c0,0-4.823,2.042-5.711,3.259
	C27.183,29.73,27,32,27,32h19C46,32,45.817,29.73,44.744,28.259z"></path><path fill="#fb8c00" d="M9 20.421v5.158C9 27.604 11.5 29 11.5 29s2.5-1.376 2.5-3.421v-5.158H9zM34 20.421v5.158C34 27.604 36.5 29 36.5 29s2.5-1.376 2.5-3.421v-5.158H34z"></path><path fill="#ffb74d" d="M11.5,8.263c-3.762,0-6.5,3.431-6.5,5.984C5,21.084,7.998,25,11.5,25S18,21.084,18,14.247
	C18,11.694,15.262,8.263,11.5,8.263z"></path><path fill="#8d6e63" d="M11.5,6C7.957,6,4,9.221,4,13c0,2.893,1.45,5.316,1.45,5.316s0.277-2.195,0.277-4.105
	c5.88,0,8.98-3.421,8.98-3.421s0.481,2.623,2.566,3.421c0.129,2.95,0.272,4.105,0.272,4.105S19,15.438,19,13
	c0-2.758-1.707-5.632-4.293-5.632C14.707,7.368,13.677,6,11.5,6z"></path><path fill="#fff" d="M10,17.5c0,0-0.672,0.75-1.5,0.75S7,17.5,7,17.5s0.672-0.75,1.5-0.75S10,17.5,10,17.5z"></path><circle cx="8.5" cy="17.5" r=".75" fill="#3e2723"></circle><path fill="#fff" d="M16,17.5c0,0-0.672,0.75-1.5,0.75S13,17.5,13,17.5s0.672-0.75,1.5-0.75S16,17.5,16,17.5z"></path><circle cx="14.5" cy="17.5" r=".75" fill="#3e2723"></circle><path fill="#fb8c00" d="M9.5,21.561c0,0,0.886,0.439,2,0.439s2-0.439,2-0.439S12.926,23,11.5,23S9.5,21.561,9.5,21.561z"></path><path fill="#fca230" d="M10.5,20.101c0,0,0.443,0.191,1,0.191s1-0.191,1-0.191s-0.287,0.719-1,0.719S10.5,20.101,10.5,20.101
	z"></path><path fill="#6d4c41" d="M15.947 15.956c0 0-.757-.272-1.711-.272-.953 0-1.368-.006-1.368-.343S13.354 15 14.237 15C15.456 15 15.947 15.956 15.947 15.956zM7.053 15.956c0 0 .757-.272 1.711-.272s1.368-.006 1.368-.343S9.646 15 8.763 15C7.544 15 7.053 15.956 7.053 15.956z"></path><path fill="#fb8c00" d="M29.696 31.84C29.491 32.741 29.308 33 28.725 33c-.765 0-1.329-.531-1.329-1.163 0-.632.62-1.145 1.385-1.145C29.685 30.692 29.905 30.922 29.696 31.84zM18.304 31.84c.205.901.388 1.16.971 1.16.765 0 1.329-.531 1.329-1.163 0-.632-.62-1.145-1.385-1.145C18.315 30.692 18.095 30.922 18.304 31.84z"></path><path fill="#2196f3" d="M30.942,39.328C30.195,38.458,26.133,37,26.133,37H24h-2.133c0,0-4.062,1.458-4.809,2.328
	C16.154,40.378,16,42,16,42h16C32,42,31.846,40.378,30.942,39.328z"></path><path fill="#fb8c00" d="M22,33.401v3.968C22,38.926,23.259,40,24,40s2-1.059,2-2.632v-3.968H22z"></path><path fill="#ffb74d" d="M24,23.741c-2.894,0-5,2.639-5,4.603c0,5.259,2.306,8.271,5,8.271s5-3.012,5-8.271
	C29,26.38,26.894,23.741,24,23.741z"></path><path fill="#8d6e63" d="M24,22c-2.834,0-6,2.577-6,5.6c0,2.314,1.565,4.854,1.565,4.854s-0.184-2.357-0.184-3.885
	c4.704,0,7.184-2.737,7.184-2.737s0.385,2.098,2.053,2.737c0.103,2.36-0.128,3.716-0.128,3.716S30,29.55,30,27.6
	c0-2.207-1.366-4.505-3.434-4.505C26.566,23.095,25.741,22,24,22z"></path><path fill="#fff" d="M22.846,31.5c0,0-0.517,0.577-1.154,0.577c-0.637,0-1.154-0.577-1.154-0.577s0.517-0.577,1.154-0.577
	C22.33,30.923,22.846,31.5,22.846,31.5z"></path><circle cx="21.692" cy="31.5" r=".577" fill="#3e2723"></circle><path fill="#fff" d="M27.462,31.5c0,0-0.517,0.577-1.154,0.577c-0.637,0-1.154-0.577-1.154-0.577s0.517-0.577,1.154-0.577
	C26.945,30.923,27.462,31.5,27.462,31.5z"></path><circle cx="26.308" cy="31.5" r=".577" fill="#3e2723"></circle><path fill="#fb8c00" d="M22.462,33.893c0,0,0.681,0.338,1.538,0.338s1.538-0.338,1.538-0.338S25.097,35,24,35
	S22.462,33.893,22.462,33.893z"></path><path fill="#fca230" d="M23.231,32.847c0,0,0.341,0.147,0.769,0.147s0.769-0.147,0.769-0.147S24.548,33.4,24,33.4
	S23.231,32.847,23.231,32.847z"></path><path fill="#6d4c41" d="M27.421 30.481c0 0-.583-.209-1.316-.209s-1.053-.004-1.053-.264.374-.262 1.053-.262C27.043 29.746 27.421 30.481 27.421 30.481zM20.579 30.481c0 0 .583-.209 1.316-.209s1.053-.004 1.053-.264-.374-.262-1.053-.262C20.957 29.746 20.579 30.481 20.579 30.481z"></path><path fill="#ffb74d" d="M36.5,8.737c-3.473,0-6,3.431-6,5.984c0,6.837,3.229,9.753,6,9.753s6-2.916,6-9.753
	C42.5,5.027,39.973,8.737,36.5,8.737z"></path><path fill="#8d6e63" d="M36.5,6C32.752,6,27,8.769,27,20.538c0-6.923,8.143-3.462,12.893-11.077
	c0,8.308,6.107,7.615,6.107,11.077c0-7.615-2.036-13.154-6.107-13.154C39.893,7.385,38.803,6,36.5,6z"></path><path fill="#fff" d="M35,17.5c0,0-0.672,0.75-1.5,0.75S32,17.5,32,17.5s0.672-0.75,1.5-0.75S35,17.5,35,17.5z"></path><circle cx="33.5" cy="17.5" r=".75" fill="#3e2723"></circle><path fill="#fff" d="M41,17.5c0,0-0.672,0.75-1.5,0.75S38,17.5,38,17.5s0.672-0.75,1.5-0.75S41,17.5,41,17.5z"></path><circle cx="39.5" cy="17.5" r=".75" fill="#3e2723"></circle><path fill="#fb8c00" d="M34.5,21.561c0,0,0.886,0.439,2,0.439s2-0.439,2-0.439S37.926,23,36.5,23S34.5,21.561,34.5,21.561z"></path><path fill="#fca230" d="M35.5,20.101c0,0,0.443,0.191,1,0.191s1-0.191,1-0.191s-0.287,0.719-1,0.719S35.5,20.101,35.5,20.101
	z"></path><path fill="#6d4c41" d="M40.947 15.956c0 0-.757-.272-1.711-.272s-1.368-.006-1.368-.343S38.354 15 39.237 15C40.456 15 40.947 15.956 40.947 15.956zM32.053 15.956c0 0 .757-.272 1.711-.272s1.368-.006 1.368-.343S34.646 15 33.763 15C32.544 15 32.053 15.956 32.053 15.956z"></path></svg>