<svg width="32" height="32" viewBox="0 0 32 32" fill="none" xmlns="http://www.w3.org/2000/svg">
<path fill-rule="evenodd" clip-rule="evenodd" d="M17.218 1.82857H4.3045C3.11584 1.82857 2.15225 2.64725 2.15225 3.65714V28.3429C2.15225 29.3527 3.11584 30.1714 4.3045 30.1714H17.218C18.4067 30.1714 19.3702 29.3527 19.3702 28.3429V3.65714C19.3702 2.64725 18.4067 1.82857 17.218 1.82857ZM4.3045 0C1.92719 0 0 1.63736 0 3.65714V28.3429C0 30.3626 1.92719 32 4.3045 32H17.218C19.5953 32 21.5225 30.3626 21.5225 28.3429V3.65714C21.5225 1.63736 19.5953 0 17.218 0H4.3045Z" fill="#1C1C1F"/>
<path d="M0 24.6857H21.5225V26.5143C21.5225 28.5341 19.5953 30.1714 17.218 30.1714H4.3045C1.92719 30.1714 0 28.5341 0 26.5143V24.6857Z" fill="#1C1C1F"/>
<path fill-rule="evenodd" clip-rule="evenodd" d="M19.3702 26.5143L2.15225 26.5143C2.15225 27.5242 3.11584 28.3429 4.3045 28.3429H17.218C18.4067 28.3429 19.3702 27.5242 19.3702 26.5143ZM0 24.6857V26.5143C0 28.5341 1.92719 30.1714 4.3045 30.1714H17.218C19.5953 30.1714 21.5225 28.5341 21.5225 26.5143V24.6857H0Z" fill="#1C1C1F"/>
<path d="M0 3.65714C0 1.63736 1.92719 0 4.3045 0H17.218C19.5953 0 21.5225 1.63736 21.5225 3.65714H0Z" fill="#1C1C1F"/>
<path fill-rule="evenodd" clip-rule="evenodd" d="M20.9466 1.82857C21.3129 2.36649 21.5225 2.99102 21.5225 3.65714H0C0 2.99102 0.209617 2.36649 0.575865 1.82857C1.32013 0.735449 2.71123 0 4.3045 0H17.218C18.8113 0 20.2024 0.735449 20.9466 1.82857Z" fill="#1C1C1F"/>
<path d="M8.60901 28.3429C8.60901 27.333 9.5726 26.5143 10.7613 26.5143C11.9499 26.5143 12.9135 27.333 12.9135 28.3429C12.9135 29.3527 11.9499 30.1714 10.7613 30.1714C9.5726 30.1714 8.60901 29.3527 8.60901 28.3429Z" fill="#FFFAEB"/>
<path d="M5.38062 11.8857C5.38062 9.86594 7.30781 8.22858 9.68511 8.22858H26.9031C29.2804 8.22858 31.2076 9.86594 31.2076 11.8857V19.2C31.2076 21.2198 29.2804 22.8571 26.9031 22.8571H9.68511C7.30781 22.8571 5.38062 21.2198 5.38062 19.2V11.8857Z" fill="#31B67A"/>
<path fill-rule="evenodd" clip-rule="evenodd" d="M26.9031 10.0571H9.68511C8.49646 10.0571 7.53286 10.8758 7.53286 11.8857V19.2C7.53286 20.2099 8.49646 21.0286 9.68511 21.0286H26.9031C28.0918 21.0286 29.0554 20.2099 29.0554 19.2V11.8857C29.0554 10.8758 28.0918 10.0571 26.9031 10.0571ZM9.68511 8.22858C7.30781 8.22858 5.38062 9.86594 5.38062 11.8857V19.2C5.38062 21.2198 7.30781 22.8571 9.68511 22.8571H26.9031C29.2804 22.8571 31.2076 21.2198 31.2076 19.2V11.8857C31.2076 9.86594 29.2804 8.22858 26.9031 8.22858H9.68511Z" fill="#1C1C1F"/>
<path d="M5.38062 9.14286C5.38062 7.12308 7.30781 5.48572 9.68511 5.48572H26.9031C29.2804 5.48572 31.2076 7.12308 31.2076 9.14286V16.4571C31.2076 18.4769 29.2804 20.1143 26.9031 20.1143H9.68511C7.30781 20.1143 5.38062 18.4769 5.38062 16.4571V9.14286Z" fill="#31B67A"/>
<path fill-rule="evenodd" clip-rule="evenodd" d="M26.9031 7.31429H9.68511C8.49646 7.31429 7.53286 8.13297 7.53286 9.14286V16.4571C7.53286 17.467 8.49646 18.2857 9.68511 18.2857H26.9031C28.0918 18.2857 29.0554 17.467 29.0554 16.4571V9.14286C29.0554 8.13297 28.0918 7.31429 26.9031 7.31429ZM9.68511 5.48572C7.30781 5.48572 5.38062 7.12308 5.38062 9.14286V16.4571C5.38062 18.4769 7.30781 20.1143 9.68511 20.1143H26.9031C29.2804 20.1143 31.2076 18.4769 31.2076 16.4571V9.14286C31.2076 7.12308 29.2804 5.48572 26.9031 5.48572H9.68511Z" fill="#1C1C1F"/>
<path d="M13.9896 12.8C13.9896 10.7802 15.9168 9.14288 18.2941 9.14288C20.6714 9.14288 22.5986 10.7802 22.5986 12.8C22.5986 14.8198 20.6714 16.4572 18.2941 16.4572C15.9168 16.4572 13.9896 14.8198 13.9896 12.8Z" fill="#EBFAF3"/>
<path fill-rule="evenodd" clip-rule="evenodd" d="M16.1419 12.8C16.1419 13.8099 17.1055 14.6286 18.2941 14.6286C19.4828 14.6286 20.4464 13.8099 20.4464 12.8C20.4464 11.7901 19.4828 10.9715 18.2941 10.9715C17.1055 10.9715 16.1419 11.7901 16.1419 12.8ZM18.2941 9.14288C15.9168 9.14288 13.9896 10.7802 13.9896 12.8C13.9896 14.8198 15.9168 16.4572 18.2941 16.4572C20.6714 16.4572 22.5986 14.8198 22.5986 12.8C22.5986 10.7802 20.6714 9.14288 18.2941 9.14288Z" fill="#1C1C1F"/>
<path d="M23.6747 12.8C23.6747 11.7901 24.6383 10.9714 25.827 10.9714C27.0156 10.9714 27.9792 11.7901 27.9792 12.8C27.9792 13.8099 27.0156 14.6286 25.827 14.6286C24.6383 14.6286 23.6747 13.8099 23.6747 12.8Z" fill="#1C1C1F"/>
<path d="M8.60901 12.8C8.60901 11.7901 9.5726 10.9714 10.7613 10.9714C11.9499 10.9714 12.9135 11.7901 12.9135 12.8C12.9135 13.8099 11.9499 14.6286 10.7613 14.6286C9.5726 14.6286 8.60901 13.8099 8.60901 12.8Z" fill="#1C1C1F"/>
</svg>
