<svg width="32" height="32" viewBox="0 0 32 32" fill="none" xmlns="http://www.w3.org/2000/svg">
<path d="M0 10C0 8.89543 0.895431 8 2 8H26C27.1046 8 28 8.89543 28 10V30C28 31.1046 27.1046 32 26 32H2C0.895431 32 0 31.1046 0 30V10Z" fill="#0C29FF"/>
<path fill-rule="evenodd" clip-rule="evenodd" d="M26 10H2V30H26V10ZM2 8C0.895431 8 0 8.89543 0 10V30C0 31.1046 0.895431 32 2 32H26C27.1046 32 28 31.1046 28 30V10C28 8.89543 27.1046 8 26 8H2Z" fill="black"/>
<path d="M4 10C4 8.89543 4.89543 8 6 8H30C31.1046 8 32 8.89543 32 10V30C32 31.1046 31.1046 32 30 32H6C4.89543 32 4 31.1046 4 30V10Z" fill="#7081FF"/>
<path fill-rule="evenodd" clip-rule="evenodd" d="M30 10H6V30H30V10ZM6 8C4.89543 8 4 8.89543 4 10V30C4 31.1046 4.89543 32 6 32H30C31.1046 32 32 31.1046 32 30V10C32 8.89543 31.1046 8 30 8H6Z" fill="black"/>
<path d="M9 13H27V27H9V13Z" fill="#7081FF"/>
<path d="M8 18C8 16.8954 8.89543 16 10 16V16C11.1046 16 12 16.8954 12 18V22C12 23.1046 11.1046 24 10 24V24C8.89543 24 8 23.1046 8 22V18Z" fill="#C4C4C4"/>
<path fill-rule="evenodd" clip-rule="evenodd" d="M10 16C8.89543 16 8 16.8954 8 18V22C8 23.1046 8.89543 24 10 24C11.1046 24 12 23.1046 12 22V18C12 16.8954 11.1046 16 10 16Z" fill="black"/>
<path fill-rule="evenodd" clip-rule="evenodd" d="M22 22V18H24V22H22Z" fill="black"/>
<path d="M21 5C21 7.76142 18.7614 10 16 10C13.2386 10 11 7.76142 11 5C11 2.23858 13.2386 0 16 0C18.7614 0 21 2.23858 21 5Z" fill="#FFE066"/>
<path fill-rule="evenodd" clip-rule="evenodd" d="M16 8C17.6569 8 19 6.65685 19 5C19 3.34315 17.6569 2 16 2C14.3431 2 13 3.34315 13 5C13 6.65685 14.3431 8 16 8ZM16 10C18.7614 10 21 7.76142 21 5C21 2.23858 18.7614 0 16 0C13.2386 0 11 2.23858 11 5C11 7.76142 13.2386 10 16 10Z" fill="black"/>
<path fill-rule="evenodd" clip-rule="evenodd" d="M25 15H11V25H25V15ZM9 13V27H27V13H9Z" fill="black"/>
</svg>
