<svg xmlns="http://www.w3.org/2000/svg" data-name="Layer 1" viewBox="0 0 64 64" id="pizza"><path fill="#f89c1c" d="M38.6011,14.4809l16.99,40.961c.1973.4726-.0292.6992-.5039.5039l-40.9589-16.99,9.1289-19.32,14.375-8.1582Z"></path><path fill="#a24427" d="M37.398,8.6138c-4.3223.7441-11.6055,5.07-17.83,11.2949S9.0171,33.4165,8.273,37.7388c-.2109,1.23.7344,2.0293,2.1113,2.6835a2.12,2.12,0,0,0,2.4453-.1679,1.6066,1.6066,0,0,0,.4336-.8711c.51-2.9649,3.93-8.8613,10.4239-15.3555s12.3906-9.914,15.3554-10.4238a1.5945,1.5945,0,0,0,.8711-.4336,2.12,2.12,0,0,0,.168-2.4453C39.4273,9.3481,38.6285,8.4028,37.398,8.6138Z"></path><path fill="#ef5151" d="M25.1929,32.8872a2.7373,2.7373,0,1,1-3.8711,0A2.7349,2.7349,0,0,1,25.1929,32.8872Z"></path><circle cx="34.896" cy="26.454" r="2.737" fill="#ef5151"></circle><path fill="#ef5151" d="M46.64 42.9809a2.7373 2.7373 0 1 1-3.8711 0A2.7349 2.7349 0 0 1 46.64 42.9809zM38.3218 36.0161a3.61 3.61 0 1 1-5.1055 0A3.6095 3.6095 0 0 1 38.3218 36.0161z"></path><path fill="#231f20" d="M56.5035,55.063,39.66,14.46a2.5127,2.5127,0,0,0,.9512-.5918,2.6256,2.6256,0,0,0,.7461-1.6758,3.7455,3.7455,0,0,0-.3828-1.8906A6.4151,6.4151,0,0,0,39.771,8.4868a2.8277,2.8277,0,0,0-2.0371-.8887,2.9763,2.9763,0,0,0-.5039.043,26.0892,26.0892,0,0,0-8.5547,3.7266A56.8483,56.8483,0,0,0,11.0269,29.0161,26.0883,26.0883,0,0,0,7.3,37.5708a2.7925,2.7925,0,0,0,.6914,2.3769,5.9094,5.9094,0,0,0,1.9688,1.3672,3.8251,3.8251,0,0,0,1.6406.3926h0a2.69,2.69,0,0,0,1.9258-.7559,2.5,2.5,0,0,0,.5859-.9355l40.5957,16.84a1.7608,1.7608,0,0,0,.6817.1446,1.244,1.244,0,0,0,.8984-.3574A1.4073,1.4073,0,0,0,56.5035,55.063ZM12.13,39.5571a.7461.7461,0,0,1-.5293.1758h0a1.8811,1.8811,0,0,1-.793-.2012c-1.7031-.81-1.6074-1.3613-1.5625-1.6269a24.2121,24.2121,0,0,1,3.4571-7.8457A54.9218,54.9218,0,0,1,29.7183,13.0434a24.2115,24.2115,0,0,1,7.8457-3.457,1.0739,1.0739,0,0,1,.17-.0156c.1739,0,.7071,0,1.4571,1.5781.3007.6309.2285,1.1192.0253,1.3223a.6224.6224,0,0,1-.3417.16A20.0733,20.0733,0,0,0,32.15,15.7446a58.5033,58.5033,0,0,0-9.16,7.586,58.5089,58.5089,0,0,0-7.586,9.16,20.07,20.07,0,0,0-3.1132,6.7246A.6228.6228,0,0,1,12.13,39.5571Zm2.5215-1.4531a24.529,24.529,0,0,1,2.4062-4.5352,61.4523,61.4523,0,0,1,16.17-16.17,24.56,24.56,0,0,1,4.52-2.4L54.1226,54.477Z"></path><path fill="#231f20" d="M23.2574 38.5454a3.7236 3.7236 0 1 1 2.6347-1.09A3.6992 3.6992 0 0 1 23.2574 38.5454zm0-5.4746a1.751 1.751 0 1 0 1.2382.5137A1.7394 1.7394 0 0 0 23.2574 33.0708zM34.896 30.1763a3.7212 3.7212 0 1 1 2.6328-1.09A3.7037 3.7037 0 0 1 34.896 30.1763zm0-5.4747a1.7537 1.7537 0 1 0 1.2364.5137A1.74 1.74 0 0 0 34.896 24.7016zM44.7046 48.6411a3.7276 3.7276 0 1 1 2.6328-1.0918A3.7013 3.7013 0 0 1 44.7046 48.6411zm0-5.4746a1.7471 1.7471 0 1 0 1.2383.5117A1.7372 1.7372 0 0 0 44.7046 43.1665zM35.7691 43.1665a4.6012 4.6012 0 1 1 3.25-1.3477A4.5681 4.5681 0 0 1 35.7691 43.1665zm0-7.2227a2.624 2.624 0 1 0 1.8555.77A2.6062 2.6062 0 0 0 35.7691 35.9438z"></path></svg>