<svg xmlns="http://www.w3.org/2000/svg" height="145.96" width="476.067" xml:space="preserve"><path style="fill:#1b54a2;fill-opacity:1;fill-rule:nonzero;stroke:none" d="m1257.83 15.762 180.66 1060.508h289.19L1546.69 15.762h-288.86M2595.23 1050.14c-57.26 21.53-147.02 44.56-259.1 44.56-285.63 0-486.84-143.821-488.62-349.989-1.61-152.363 143.63-237.43 253.29-288.141 112.57-51.992 150.42-85.156 149.93-131.562-.8-71.094-89.92-103.516-173.06-103.516-115.63 0-177.1 16.004-272.04 55.625l-37.2 16.824-40.6-237.43C1795.28 26.912 1920.14 1.29 2049.85 0c303.9 0 501.06 142.145 503.33 362.359 1.13 120.579-75.85 212.364-242.61 288.086-101.08 49.094-163.04 81.805-162.38 131.496 0 44.079 52.4 91.227 165.61 91.227 94.46 1.492 163.04-19.133 216.24-40.637l26.05-12.254 39.14 229.863M2980 391.629c23.94 61.141 115.15 296.512 115.15 296.512-1.61-2.836 23.78 61.418 38.33 101.246l19.58-91.465s55.32-253.16 66.95-306.293H2980zm356.47 683.631h-223.35c-69.23 0-120.99-18.9-151.4-87.955L2532.48 15.359h303.58s49.49 130.672 60.81 159.375c33.15 0 328-.476 370.21-.476 8.58-37.113 35.1-158.899 35.1-158.899h268.32L3336.47 1075.26M1015.39 1075.5 732.34 352.254l-30.246 146.934c-52.563 169.496-216.727 353.074-400.285 444.937L560.574 16.559l305.852.421L1321.55 1075.5h-306.16" transform="matrix(.13333 0 0 -.13333 0 145.96)"/><path style="fill:#f89c0e;fill-opacity:1;fill-rule:nonzero;stroke:none" d="M469.844 1076.15H3.554L0 1054.11c362.613-87.833 602.633-299.977 702.094-554.922L600.855 986.633c-17.476 67.157-68.253 87.167-131.011 89.517" transform="matrix(.13333 0 0 -.13333 0 145.96)"/></svg>